<?xml version="1.0" encoding="utf-8"?>
<!-- Generator: Adobe Illustrator 22.1.0, SVG Export Plug-In . SVG Version: 6.00 Build 0)  -->
<svg version="1.1" id="Layer_1" xmlns="http://www.w3.org/2000/svg" xmlns:xlink="http://www.w3.org/1999/xlink" x="0px" y="0px"
	 viewBox="0 0 30 30" style="enable-background:new 0 0 30 30;" xml:space="preserve">
<style type="text/css">
	.st0{fill:#a5a5a5;}
</style>
<g>
	<g>
		<g>
			<g>
				<path class="st0" d="M6.9,21.8c0.2,0.1-0.2-0.1-0.1,0L6.9,21.8c-0.4,0.4-0.7,1-0.7,1.7V31c0,0.3,0.2,0.5,0.5,0.5
					c0.3,0,0.5-0.2,0.5-0.5v-7.5c0-0.6,0.4-1.2,1-1.4l3-1.1l1.2,1.9c0.2,0.2,0.4,0.4,0.7,0.4c0,0,0.1,0,0.1,0c0.2,0,0.5-0.1,0.7-0.3
					l0.8-0.8V31c0,0.3,0.2,0.5,0.5,0.5s0.5-0.2,0.5-0.5v-8.8l0.8,0.8c0.2,0.2,0.4,0.3,0.7,0.3c0,0,0.1,0,0.1,0
					c0.3,0,0.5-0.2,0.7-0.4l1.2-1.9l3,1.1c0.6,0.2,1,0.8,1,1.4V31c0,0.3,0.2,0.5,0.5,0.5c0.3,0,0.5-0.2,0.5-0.5v-7.5L23,22l-0.8-0.8
					l-2.8-1c0-0.1,0-0.3-0.1-0.3l-0.9-0.9v-1.5c1.2-1,2-2.6,2-4.3v-1c0.3-0.7,0.5-1.5,0.5-2.2v-1c0-2.4-2-4.4-4.4-4.4H9.6
					C9.4,4.5,9.2,4.7,9.2,5v4.9c0,0.8,0.2,1.5,0.5,2.2v1.2c0,1.5,0.6,2.9,1.7,3.9c0.1,0.1,0.2,0.2,0.3,0.2v1.5l-0.9,0.9
					c-0.1,0.1-0.1,0.2-0.1,0.3l-2.7,1 M15.3,17.7c-1.1,0.1-2.1-0.2-3-0.9c0,0,0,0,0,0c-0.1-0.1-0.2-0.2-0.4-0.3
					c-0.9-0.8-1.4-2-1.4-3.2V12c0-0.1,0-0.1,0-0.2c-0.3-0.6-0.4-1.3-0.4-1.9V5.5h6.4c1.9,0,3.5,1.5,3.5,3.5v1c0,0.7-0.1,1.3-0.4,1.9
					c0,0.1,0,0.1,0,0.2v1.1C19.4,15.6,17.6,17.6,15.3,17.7z M15.7,21.2l2.2-1.5l0.5,0.5l-1.4,2.1c0,0,0,0,0,0c0,0,0,0,0,0L15.7,21.2
					z M12.5,18.9V18c0.8,0.4,1.6,0.6,2.5,0.6c0.1,0,0.2,0,0.4,0c0.8,0,1.5-0.3,2.1-0.6v0.9L15,20.6L12.5,18.9z M11.7,20.2l0.5-0.5
					l2.2,1.5l-1.1,1.1c0,0,0,0,0,0c0,0,0,0,0,0L11.7,20.2z"/>
			</g>
		</g>
		<g>
			<g>
				<path class="st0" d="M11.3,10.1c1.7-1.7,5.3-1.4,6.8-1.2c0.5,0.1,0.8,0.5,0.8,0.9v1.1c0,0.3-0.2,0.5-0.5,0.5
					c-0.3,0-0.5-0.2-0.5-0.5V9.8c0,0,0,0,0,0c-0.6-0.1-1.8-0.2-3-0.1c-1.4,0.1-2.5,0.5-3.1,1.1c-0.2,0.2-0.5,0.2-0.6,0
					C11.1,10.5,11.1,10.2,11.3,10.1z"/>
			</g>
		</g>
		<g>
			<g>
				<path class="st0" d="M20.4,24.6c0.3,0,0.5,0.2,0.5,0.5v6c0,0.3-0.2,0.5-0.5,0.5c-0.3,0-0.5-0.2-0.5-0.5v-6
					C19.9,24.8,20.1,24.6,20.4,24.6z"/>
			</g>
		</g>
		<g>
			<g>
				<path class="st0" d="M9.6,24.6c0.3,0,0.5,0.2,0.5,0.5v6c0,0.3-0.2,0.5-0.5,0.5S9.2,31.2,9.2,31v-6C9.2,24.8,9.4,24.6,9.6,24.6z"
					/>
			</g>
		</g>
	</g>
</g>
</svg>
