<?xml version="1.0" encoding="utf-8"?>
<!-- Generator: Adobe Illustrator 19.2.1, SVG Export Plug-In . SVG Version: 6.00 Build 0)  -->
<svg version="1.1" id="Layer_1" xmlns="http://www.w3.org/2000/svg" xmlns:xlink="http://www.w3.org/1999/xlink" x="0px" y="0px"
	 width="64px" height="58px" viewBox="0 0 64 58" style="enable-background:new 0 0 64 58;" xml:space="preserve">
<style type="text/css">
	.st0{fill:#9B9B9B;}
</style>
<path class="st0" d="M0.2,7.6c2.3,2.1,4.5,4.1,7.1,5.9c0.8,0.6,1.6-0.7,0.8-1.3c-1.7-1.3-3.3-2.6-4.9-4c15.1-4,32.1-2.8,44.5,7.5
	c12.5,10,16.5,26,14.1,41.4c-0.1,0.9,1.4,1.4,1.5,0.4c2.5-16-1.6-32.5-14.5-42.9C36,4.2,18.8,2.7,3.2,6.7C4.2,4.8,6,3,6.1,0.8
	c0.1-0.6-0.6-1-1.1-0.7C2.9,1.6,1.1,4.3,0.1,6.7C0,7-0.1,7.4,0.2,7.6z"/>
</svg>
