<?xml version="1.0" encoding="utf-8"?>
<!-- Generator: Adobe Illustrator 22.1.0, SVG Export Plug-In . SVG Version: 6.00 Build 0)  -->
<svg version="1.1" id="Layer_1" xmlns="http://www.w3.org/2000/svg" xmlns:xlink="http://www.w3.org/1999/xlink" x="0px" y="0px"
	 viewBox="0 0 63 70" style="enable-background:new 0 0 63 70;" xml:space="preserve">
<style type="text/css">
	.st0{fill:#9B9B9B;}
</style>
<path class="st0" d="M62.8,5.6c-1.6-2.3-4.6-4.2-7.1-5.4C55.4,0.1,55,0,54.8,0.3c-2.2,2.6-4.4,5-6.4,7.8c-0.6,0.8,0.7,1.5,1.3,0.8
	c1.4-2,2.9-3.7,4.4-5.5c4.4,16.6,3,35.3-8.1,49.1c-11,13.7-28.4,18.1-45.2,15.4c-0.9-0.1-1.3,1.3-0.4,1.5
	c17.3,2.7,35.3-1.7,46.7-15.8c11.4-14.1,13-33,8.6-50.1c2.1,1.2,4.1,3.1,6.5,3.3C62.7,6.7,63.1,6,62.8,5.6z M59.2,4
	c-0.5-0.4-1.1-0.7-1.6-1.1C58.1,3.2,58.7,3.6,59.2,4z"/>
</svg>
