<?xml version="1.0" encoding="utf-8"?>
<!-- Generator: Adobe Illustrator 17.0.0, SVG Export Plug-In . SVG Version: 6.00 Build 0)  -->
<!DOCTYPE svg PUBLIC "-//W3C//DTD SVG 1.1//EN" "http://www.w3.org/Graphics/SVG/1.1/DTD/svg11.dtd">
<svg version="1.1" id="Layer_1" xmlns="http://www.w3.org/2000/svg" xmlns:xlink="http://www.w3.org/1999/xlink" x="0px" y="0px"
	 width="260px" height="260px" viewBox="0 0 260 260" enable-background="new 0 0 260 260" xml:space="preserve">
<g>
	<g>
		<g>
			<polygon fill="#9B9B9B" points="244,244 237.441,244 237.441,242.126 242.126,242.126 242.126,237.441 244,237.441 			"/>
		</g>
		<g>
			<path fill="#9B9B9B" d="M226.131,244h-11.309v-1.874h11.309V244z M203.513,244h-11.309v-1.874h11.309V244z M180.894,244h-11.309
				v-1.874h11.309V244z M158.274,244h-11.309v-1.874h11.309V244z M135.655,244h-11.309v-1.874h11.309V244z M113.036,244h-11.309
				v-1.874h11.309V244z M90.418,244h-11.31v-1.874h11.309L90.418,244L90.418,244z M67.798,244H56.488v-1.874h11.309V244z
				 M45.179,244H33.87v-1.874h11.309V244z"/>
		</g>
		<g>
			<polygon fill="#9B9B9B" points="22.56,244 16.001,244 16.001,237.441 17.874,237.441 17.874,242.126 22.56,242.126 			"/>
		</g>
		<g>
			<path fill="#9B9B9B" d="M17.874,226.131H16v-11.309h1.874V226.131z M17.874,203.513H16v-11.309h1.874V203.513z M17.874,180.894
				H16v-11.309h1.874V180.894z M17.874,158.274H16v-11.309h1.874V158.274z M17.874,135.655H16v-11.309h1.874V135.655z
				 M17.874,113.036H16v-11.309h1.874V113.036z M17.874,90.418H16v-11.31h1.874V90.418z M17.874,67.798H16V56.488h1.874V67.798z
				 M17.874,45.179H16V33.87h1.874V45.179z"/>
		</g>
		<g>
			<polygon fill="#9B9B9B" points="17.874,22.56 16.001,22.56 16.001,16.001 22.56,16.001 22.56,17.874 17.874,17.874 			"/>
		</g>
		<g>
			<path fill="#9B9B9B" d="M226.131,17.874h-11.309V16h11.309V17.874z M203.513,17.874h-11.309V16h11.309V17.874z M180.894,17.874
				h-11.309V16h11.309V17.874z M158.274,17.874h-11.309V16h11.309V17.874z M135.655,17.874h-11.309V16h11.309V17.874z
				 M113.036,17.874h-11.309V16h11.309V17.874z M90.418,17.874h-11.31V16h11.309L90.418,17.874L90.418,17.874z M67.799,17.874
				h-11.31V16h11.309L67.799,17.874L67.799,17.874z M45.179,17.874H33.87V16h11.309V17.874z"/>
		</g>
		<g>
			<polygon fill="#9B9B9B" points="244,22.56 242.126,22.56 242.126,17.874 237.441,17.874 237.441,16.001 244,16.001 			"/>
		</g>
		<g>
			<path fill="#9B9B9B" d="M244,226.13h-1.874v-11.309H244V226.13z M244,203.512h-1.874v-11.309H244V203.512z M244,180.893h-1.874
				v-11.309H244V180.893z M244,158.274h-1.874v-11.309H244V158.274z M244,135.655h-1.874v-11.309H244V135.655z M244,113.035h-1.874
				v-11.308H244V113.035z M244,90.417h-1.874V79.107H244V90.417z M244,67.798h-1.874V56.488H244V67.798z M244,45.179h-1.874V33.87
				H244V45.179z"/>
		</g>
	</g>
</g>
<rect x="127.625" y="112.899" fill="#FFFFFF" width="4.75" height="34.202"/>
<rect x="113.374" y="127.625" fill="#FFFFFF" width="33.252" height="4.75"/>
</svg>
