<?xml version="1.0" encoding="utf-8"?>
<!-- Generator: Adobe Illustrator 22.1.0, SVG Export Plug-In . SVG Version: 6.00 Build 0)  -->
<svg version="1.1" id="Layer_1" xmlns="http://www.w3.org/2000/svg" xmlns:xlink="http://www.w3.org/1999/xlink" x="0px" y="0px"
	 viewBox="0 0 80 80" style="enable-background:new 0 0 80 80;" xml:space="preserve">
<style type="text/css">
	.st0{fill:#FFFFFF;}
</style>
<g>
	<g>
		<g>
			<path class="st0" d="M27.6,47.6c0.3,0.1-0.4-0.1-0.2-0.1L27.6,47.6c-0.7,0.7-1.1,1.7-1.1,2.8v5.8c0,0.4,0.3,0.8,0.8,0.8
				s0.8-0.3,0.8-0.8v-5.8c0-1,0.7-2,1.6-2.3l4.9-1.8l2.1,3.1c0.3,0.4,0.7,0.6,1.2,0.7c0.1,0,0.1,0,0.2,0c0.4,0,0.8-0.2,1.1-0.5
				l1.3-1.3v7.9c0,0.4,0.3,0.8,0.8,0.8c0.4,0,0.8-0.3,0.8-0.8v-7.9l1.3,1.3c0.3,0.3,0.7,0.5,1.1,0.5c0.1,0,0.1,0,0.2,0
				c0.5,0,0.9-0.3,1.2-0.7l2.1-3.1l4.9,1.8c1,0.4,1.6,1.3,1.6,2.3v5.8c0,0.4,0.3,0.8,0.8,0.8c0.4,0,0.8-0.3,0.8-0.8v-5.8l-2.6-3.8
				L48.3,45c0-0.2-0.1-0.4-0.2-0.6l-1.4-1.5v-2.6c2-1.7,3.2-4.2,3.2-7.1v-1.7c0.5-1.2,0.8-2.4,0.8-3.7v-1.6c0-4-3.3-7.3-7.3-7.3
				H32.1c-0.4,0-0.8,0.3-0.8,0.8v8.1c0,1.3,0.3,2.5,0.8,3.7v2c0,2.4,1,4.8,2.8,6.5c0.1,0.1,0.3,0.3,0.4,0.4v2.5L34,44.4
				c-0.2,0.2-0.2,0.4-0.2,0.6l-4.4,1.6 M41.5,40.9c-1.8,0.1-3.5-0.4-4.9-1.5c0,0,0,0,0,0c-0.2-0.2-0.4-0.3-0.6-0.5
				c-1.5-1.4-2.3-3.3-2.3-5.4v-2.2c0-0.1,0-0.2-0.1-0.3c-0.5-1-0.7-2.1-0.7-3.2v-7.4h10.6c3.2,0,5.7,2.6,5.7,5.7v1.6
				c0,1.1-0.2,2.2-0.7,3.2c0,0.1-0.1,0.2-0.1,0.3v1.9C48.4,37.3,45.3,40.6,41.5,40.9z M42.2,46.6l3.6-2.5l0.8,0.8l-2.4,3.6
				c0,0,0,0,0,0c0,0,0,0,0,0L42.2,46.6z M36.9,42.8v-1.4c1.3,0.7,2.7,1,4.1,1c0.2,0,0.4,0,0.6,0c1.3-0.1,2.5-0.4,3.5-1v1.4L41,45.6
				L36.9,42.8z M35.5,45l0.8-0.8l3.6,2.5l-1.9,1.9c0,0,0,0,0,0c0,0,0,0,0,0L35.5,45z"/>
		</g>
	</g>
	<g>
		<g>
			<path class="st0" d="M34.8,28.1c2.9-2.9,8.9-2.3,11.3-2c0.8,0.1,1.3,0.8,1.3,1.6v1.8c0,0.4-0.3,0.8-0.8,0.8
				c-0.4,0-0.8-0.3-0.8-0.8v-1.8c0,0,0,0,0-0.1c-1-0.1-2.9-0.4-4.9-0.2c-2.4,0.2-4.1,0.8-5.1,1.8c-0.3,0.3-0.8,0.3-1.1,0
				C34.5,28.9,34.5,28.4,34.8,28.1z"/>
		</g>
	</g>
	<g>
		<g>
			<path class="st0" d="M49.9,52.3c0.4,0,0.8,0.3,0.8,0.8v3.2c0,0.4-0.3,0.8-0.8,0.8c-0.4,0-0.8-0.3-0.8-0.8V53
				C49.2,52.6,49.5,52.3,49.9,52.3z"/>
		</g>
	</g>
	<g>
		<g>
			<path class="st0" d="M32.1,52.3c0.4,0,0.8,0.3,0.8,0.8v3.2c0,0.4-0.3,0.8-0.8,0.8c-0.4,0-0.8-0.3-0.8-0.8V53
				C31.3,52.6,31.6,52.3,32.1,52.3z"/>
		</g>
	</g>
</g>
</svg>
