<?xml version="1.0" encoding="utf-8"?>
<!-- Generator: Adobe Illustrator 22.1.0, SVG Export Plug-In . SVG Version: 6.00 Build 0)  -->
<svg version="1.1" id="Layer_1" xmlns="http://www.w3.org/2000/svg" xmlns:xlink="http://www.w3.org/1999/xlink" x="0px" y="0px"
	 viewBox="0 0 30 30" style="enable-background:new 0 0 30 30;" xml:space="preserve">
<style type="text/css">
	.st0{fill:#A8A8A8;}
</style>
<polygon class="st0" points="1.5,20 0,20 0,28.5 0,30 1.5,30 10,30 10,28.5 1.5,28.5 "/>
<polygon class="st0" points="1.5,0 0,0 0,1.5 0,10 1.5,10 1.5,1.5 10,1.5 10,0 "/>
<polygon class="st0" points="28.5,20 30,20 30,28.5 30,30 28.5,30 20,30 20,28.5 28.5,28.5 "/>
<polygon class="st0" points="28.5,0 30,0 30,1.5 30,10 28.5,10 28.5,1.5 20,1.5 20,0 "/>
</svg>
